<?xml version="1.0" standalone="no"?>
<!DOCTYPE svg PUBLIC "-//W3C//DTD SVG 20010904//EN"
 "http://www.w3.org/TR/2001/REC-SVG-20010904/DTD/svg10.dtd">
<svg version="1.0" xmlns="http://www.w3.org/2000/svg"
 width="512.000000pt" height="512.000000pt" viewBox="0 0 512.000000 512.000000"
 preserveAspectRatio="xMidYMid meet">
<metadata>
Created by potrace 1.11, written by Peter Selinger 2001-2013
</metadata>
<g transform="translate(0.000000,512.000000) scale(0.100000,-0.100000)"
fill="#000000" stroke="none">
<path d="M4615 5082 c-88 -43 -169 -161 -214 -312 -25 -83 -87 -307 -96 -350
-2 -8 -27 -100 -55 -205 -28 -104 -71 -266 -96 -360 -25 -93 -52 -193 -59
-221 l-15 -51 -1804 1 c-1730 1 -1803 0 -1776 -17 34 -22 74 -79 91 -132 8
-25 13 -96 14 -187 0 -142 0 -148 -20 -149 -11 0 -90 -1 -175 0 -85 0 -165 -2
-177 -5 -27 -5 -39 -54 -23 -94 l12 -29 189 2 c120 1 189 -2 190 -8 1 -5 2
-296 4 -645 2 -573 5 -684 21 -785 40 -254 136 -505 272 -711 269 -406 674
-677 1162 -775 193 -38 543 -32 715 13 22 5 50 12 63 14 59 11 219 71 327 124
371 179 662 475 840 855 60 128 122 325 140 450 4 22 9 51 12 65 4 14 8 333
10 710 3 376 6 686 8 688 1 2 84 3 183 3 204 1 215 4 215 64 0 60 -12 63 -201
63 -92 0 -175 1 -185 1 -17 1 -18 12 -15 164 3 150 5 166 28 211 14 27 40 61
60 77 39 32 42 30 -53 31 -30 0 -37 4 -32 17 2 9 36 135 74 281 96 369 150
567 206 755 53 181 127 295 219 339 50 24 144 18 204 -13 l42 -21 0 21 c0 36
-36 83 -82 108 -61 33 -169 39 -223 13z m-3027 -2780 c72 -30 152 -124 152
-179 0 -12 -5 -9 -15 11 -22 41 -61 75 -120 102 -58 28 -120 30 -192 9 -59
-18 -94 -43 -135 -99 -23 -31 -29 -35 -23 -16 42 146 198 226 333 172z m1775
2 c53 -18 121 -81 143 -132 20 -48 17 -62 -5 -29 -92 141 -315 154 -425 25
-45 -52 -49 -26 -6 37 69 100 180 138 293 99z m-1798 -775 c71 -142 205 -275
366 -363 70 -38 191 -83 249 -92 19 -3 55 -10 80 -14 46 -9 245 -6 290 4 98
22 133 32 190 54 233 92 431 281 502 479 13 35 27 63 31 63 4 0 6 -3 4 -7 -3
-5 -7 -30 -11 -58 -10 -83 -35 -165 -76 -250 -62 -127 -79 -152 -170 -245
-129 -134 -312 -230 -488 -257 -61 -9 -233 -9 -295 0 -75 12 -213 63 -296 109
-105 60 -261 215 -320 321 -41 74 -85 179 -95 229 -21 106 -26 134 -26 157 1
19 5 13 19 -25 10 -28 31 -75 46 -105z"/>
<path d="M1020 4583 c-25 -18 -24 -35 9 -123 12 -33 20 -79 20 -115 0 -59 -4
-75 -74 -265 -43 -116 -35 -232 24 -348 26 -50 47 -64 77 -50 33 15 33 45 0
118 -41 89 -42 177 -2 270 63 147 68 166 72 246 3 84 -9 147 -43 225 -23 51
-50 65 -83 42z"/>
<path d="M1699 4586 c-30 -15 -30 -47 0 -131 37 -102 28 -180 -36 -325 -29
-66 -51 -154 -48 -195 7 -108 57 -239 97 -254 46 -17 77 25 53 72 -6 13 -21
51 -32 84 -31 89 -24 148 33 285 67 162 70 259 12 406 -24 61 -44 76 -79 58z"/>
<path d="M2369 4586 c-30 -15 -30 -47 1 -131 20 -56 26 -130 16 -182 -3 -12
-22 -66 -44 -120 -64 -158 -70 -215 -36 -333 33 -114 68 -157 110 -138 33 15
33 45 0 118 -23 52 -29 79 -29 135 0 61 6 85 48 185 42 100 48 125 51 197 3
84 -16 175 -49 240 -20 38 -37 45 -68 29z"/>
<path d="M3038 4593 c-25 -6 -32 -56 -14 -92 26 -50 43 -142 35 -196 -6 -45
-37 -137 -75 -220 -43 -95 -32 -241 27 -357 24 -46 45 -59 75 -46 30 14 34 45
11 92 -56 114 -56 191 -2 322 52 125 62 163 63 235 1 101 -45 248 -83 263 -9
3 -17 5 -18 5 -1 -1 -10 -3 -19 -6z"/>
<path d="M3701 4583 c-27 -18 -26 -36 4 -111 32 -79 33 -164 4 -253 -12 -35
-25 -68 -29 -74 -16 -22 -51 -140 -54 -183 -5 -84 36 -225 79 -268 33 -33 74
-17 79 31 1 6 -11 39 -28 75 -43 98 -41 177 9 295 68 163 79 243 47 365 -29
113 -67 155 -111 123z"/>
</g>
</svg>
