<svg xmlns="http://www.w3.org/2000/svg" viewBox="0 0 408.29 159.34">
    <g class="Logo">
        <path d="M182.49 88.69c0 7.77-5 10.65-12.67 10.65h-.15c-7.67 0-12.67-2.8-12.67-10.65V58.44c0-7.48 5-10.65 12.67-10.65h.15c7.63 0 12.67 3.17 12.67 10.65v9.22h-8.35v-7.92c0-3.53-1.73-4.61-4.4-4.61s-4.39 1.08-4.39 4.61v27.65c0 3.53 1.73 4.61 4.39 4.61s4.4-1.08 4.4-4.61v-9.14h8.35zM199.7 48.36v21h9.58v-21h8.35v50.41h-8.35V76.88h-9.58v21.89h-8.35V48.36zM227 98.77V48.36h8.35v50.41zM265.92 98.77h-21.24V48.36H253v42.92h12.89zM273.93 98.77V48.36h8.36v50.41zM315.4 55.71H307v43.06h-8.35V55.71h-8.45v-7.35h25.2zM323.35 98.77V48.36h8.35v50.41zM361.05 91.42h-4.68L348.81 68v30.77H341V48.36h8l9.72 29.31 9.79-29.31h8.21v50.41h-8.06V68zM386 98.77V48.36h22.11v7.35h-13.79v13.82h11.52v7.35h-11.52v14.54h14v7.35z"/>
        <path d="M182.85 119v29.09c0 7.63-5 10.66-12.67 10.66h-12.89v-50.39h12.89c7.63 0 12.67 3.03 12.67 10.64zm-13-3.31h-4.25v35.71h4.25c2.73 0 4.61-1 4.61-4.61v-26.47c.04-3.6-1.84-4.61-4.57-4.61zM191.88 158.77v-50.41H214v7.35h-13.77v13.82h11.52v7.35h-11.52v14.54h14v7.35zM239 126.37v-7.06c0-3.17-1.8-4.32-4.25-4.32s-4.24 1.15-4.24 4.32v3.45c0 2.6.86 3.75 3.24 5.12l5.9 3.31c4.82 2.74 7.7 5 7.7 10.37v7.27c0 7.78-4.82 10.51-12.45 10.51h-.15c-7.63 0-12.45-2.66-12.45-10.51v-8.78h8.21v7.63c0 3.1 1.8 4.46 4.32 4.46s4.32-1.36 4.32-4.46v-4c0-2.59-.8-3.89-3.32-5.26l-5.83-3.27c-4.9-2.81-7.7-5.11-7.7-10.37v-6.62c0-7.49 5.47-10.37 12.38-10.37h.15c6.91 0 12.38 2.88 12.38 10.37v8.21zM256.07 158.77v-50.41h8.35v50.41zM299.52 148.69c0 7.77-5 10.65-12.68 10.65h-.57c-7.63 0-12.67-2.8-12.67-10.65v-30.25c0-7.48 5-10.65 12.67-10.65h.57c7.64 0 12.68 3.17 12.68 10.65v7.2h-8.36v-5.9c0-3.6-1.87-4.61-4.6-4.61s-4.61 1-4.61 4.61v27.65c0 3.6 1.87 4.61 4.61 4.61s4.6-1 4.6-4.61v-7.49h-4.89v-7.05h13.25zM308.44 158.77v-50.41h8.36l10.58 31.18v-31.18H335v50.41h-7.92l-11-32.77v32.77z"/>
    </g>
    <g class="Text">
        <path d="M131.77 10.25a19.61 19.61 0 0 1 4.73-8.34c4.54-4.45 12.86-.15 11.31 3-.05 0-9.19-7.07-14 8.14-2.84 8.85-12.7 47.37-12.7 47.37l-2.65-.71 13.26-49.49z"/>
        <path d="M136 62.86c.65 0 1.18.85 1.18 1.9s-.53 1.9-1.18 1.9h-11.54v36.82a55.89 55.89 0 0 1-55.86 55.86h-.18a55.88 55.88 0 0 1-55.68-55.86V66.66H1.18c-.65 0-1.18-.85-1.18-1.9s.53-1.9 1.18-1.9h11.56V54.8c0-3.71-2.51-6.79-4.28-7.18h120.27c-1.77.39-4.25 3.47-4.27 7.18v8.06zM40.66 106a27.94 27.94 0 0 0 55.88 0c-2.33 11.57-14.05 21-27.94 21s-25.6-9.43-27.94-21zm63.75-11a7.88 7.88 0 1 0-15.75 0c.66-3.26 4-5.91 7.88-5.91s7.21 2.68 7.87 5.91zm-55.88 0a7.88 7.88 0 1 0-15.75 0c.66-3.26 4-5.91 7.88-5.91s7.22 2.68 7.87 5.91zM26.65 15.85a1.64 1.64 0 0 1 1.33 1 15.38 15.38 0 0 1 1.37 10.19c-.85 3.34-3.27 6.19-3 10a13.69 13.69 0 0 0 1.8 5.41l.05.11a.9.9 0 0 1 .08.23 1.54 1.54 0 0 1-1.8 1.8c-.6-.15-.94-.7-1.26-1.33a13.9 13.9 0 0 1-1.5-9.71c.88-3.43 3.24-6.42 3-10.15a15 15 0 0 0-1.5-5.4v-.11a1.29 1.29 0 0 1-.09-.6 1.53 1.53 0 0 1 1.21-1.38 1.24 1.24 0 0 1 .31-.06zM68.7 15.85a1.67 1.67 0 0 1 1.33 1 15.45 15.45 0 0 1 1.37 10.2c-.86 3.39-3.26 6.38-3 10a13.69 13.69 0 0 0 1.8 5.41l.06.11a1.48 1.48 0 0 1-1.73 2c-.59-.15-.94-.7-1.25-1.33a13.92 13.92 0 0 1-1.51-9.71c.88-3.43 3.25-6.42 3-10.15A15 15 0 0 0 67.26 18v-.11a1.16 1.16 0 0 1-.09-.6 1.52 1.52 0 0 1 1.2-1.38 1.31 1.31 0 0 1 .33-.06zM47.67 15.85a1.67 1.67 0 0 1 1.34 1 15.39 15.39 0 0 1 1.36 10.19c-.86 3.39-3.25 6.38-3 10a13.69 13.69 0 0 0 1.8 5.41l.06.11a1.55 1.55 0 0 1 .08.23 1.54 1.54 0 0 1-1 1.77 1.59 1.59 0 0 1-1.87-.85 14.84 14.84 0 0 1-2-8.56c.46-4 3.57-7.46 3.32-11.75a15 15 0 0 0-1.52-5.4l-.05-.11a1.29 1.29 0 0 1-.09-.6 1.53 1.53 0 0 1 1.21-1.38 1.24 1.24 0 0 1 .36-.06zM89.72 15.85a1.67 1.67 0 0 1 1.33 1A15.43 15.43 0 0 1 92.43 27c-.85 3.39-3.25 6.4-3 10a13.52 13.52 0 0 0 1.81 5.46v.11a1.48 1.48 0 0 1-1.49 2.07c-.7-.06-1.15-.68-1.49-1.37a13.91 13.91 0 0 1-1.5-9.71c.88-3.44 3.22-6.39 3-10.11A14.8 14.8 0 0 0 88.28 18v-.11a1.16 1.16 0 0 1-.09-.6 1.53 1.53 0 0 1 1.2-1.38 1.31 1.31 0 0 1 .33-.06zM110.74 15.85a1.67 1.67 0 0 1 1.33 1A15.43 15.43 0 0 1 113.45 27c-.84 3.37-3.26 6.33-3 10a13.67 13.67 0 0 0 1.81 5.46v.11a1.55 1.55 0 0 1 .08.23 1.54 1.54 0 0 1-1 1.77 1.61 1.61 0 0 1-1.87-.85 14.84 14.84 0 0 1-2-8.56c.46-4 3.55-7.52 3.33-11.71a15 15 0 0 0-1.49-5.45v-.11a1.16 1.16 0 0 1-.09-.6 1.53 1.53 0 0 1 1.2-1.38 1.31 1.31 0 0 1 .32-.06z"/>
    </g>
</svg>
